HIERARCHY
ROOT Hips
{
	OFFSET 0.000000 83.214638 0.000000
	CHANNELS 6 Xposition Yposition Zposition Xrotation Yrotation Zrotation
	JOINT Pelvis
	{
		OFFSET 0.000000 0.000000 0.000000
		CHANNELS 3 Xrotation Yrotation Zrotation
		JOINT LeftUpLeg
		{
			OFFSET 8.479700 -4.795502 -0.379100
			CHANNELS 3 Xrotation Yrotation Zrotation
			JOINT LeftLeg
			{
				OFFSET 0.024144 -32.555107 0.112900
				CHANNELS 3 Xrotation Yrotation Zrotation
				JOINT LeftFoot
				{
					OFFSET -0.024144 -32.638630 -3.012600
					CHANNELS 3 Xrotation Yrotation Zrotation
					JOINT LeftToeBase
					{
						OFFSET 0.970200 -13.225400 11.864200
						CHANNELS 3 Xrotation Yrotation Zrotation
						End Site
						{
							OFFSET 0.000000 12.319262 0.000000
						}
					}
					JOINT LFootTongue
					{
						OFFSET 1.142400 -1.059800 6.665200
						CHANNELS 3 Xrotation Yrotation Zrotation
						End Site
						{
							OFFSET 0.000000 12.319262 0.000000
						}
					}
				}
				JOINT LeftPantLeg
				{
					OFFSET 0.918482 -16.533964 -2.284700
					CHANNELS 3 Xrotation Yrotation Zrotation
					End Site
					{
						OFFSET 0.350399 24.744368 0.000000
					}
				}
			}
		}
		JOINT RightUpLeg
		{
			OFFSET -8.479700 -4.795502 -0.379100
			CHANNELS 3 Xrotation Yrotation Zrotation
			JOINT RightLeg
			{
				OFFSET -0.023144 -32.555092 0.112900
				CHANNELS 3 Xrotation Yrotation Zrotation
				JOINT RightFoot
				{
					OFFSET 0.023144 -32.638641 -3.012700
					CHANNELS 3 Xrotation Yrotation Zrotation
					JOINT RightToeBase
					{
						OFFSET -0.970200 -13.225400 11.864200
						CHANNELS 3 Xrotation Yrotation Zrotation
						End Site
						{
							OFFSET 0.000000 12.319244 0.000000
						}
					}
					JOINT RFootTongue
					{
						OFFSET -1.142200 -1.059800 6.665200
						CHANNELS 3 Xrotation Yrotation Zrotation
						End Site
						{
							OFFSET 0.000000 12.319243 0.000000
						}
					}
				}
				JOINT RightPantLeg
				{
					OFFSET -0.919482 -16.533978 -2.284800
					CHANNELS 3 Xrotation Yrotation Zrotation
					End Site
					{
						OFFSET -0.350400 24.744419 0.000000
					}
				}
			}
		}
	}
	JOINT Spine
	{
		OFFSET 0.000000 7.722000 1.166200
		CHANNELS 3 Xrotation Yrotation Zrotation
		JOINT Spine1
		{
			OFFSET 0.000000 12.024101 0.248800
			CHANNELS 3 Xrotation Yrotation Zrotation
			JOINT Spine2
			{
				OFFSET 0.000000 11.502998 -0.491200
				CHANNELS 3 Xrotation Yrotation Zrotation
				JOINT Neck
				{
					OFFSET 0.000000 18.430702 -3.123100
					CHANNELS 3 Xrotation Yrotation Zrotation
					JOINT Head
					{
						OFFSET 0.000000 9.051102 1.034000
						CHANNELS 3 Xrotation Yrotation Zrotation
						JOINT HairB
						{
							OFFSET 0.208400 24.786102 24.822300
							CHANNELS 3 Xrotation Yrotation Zrotation
							End Site
							{
								OFFSET 0.000000 32.263779 0.000000
							}
						}
						JOINT HairA
						{
							OFFSET -7.081100 24.428299 23.196600
							CHANNELS 3 Xrotation Yrotation Zrotation
							End Site
							{
								OFFSET 0.000000 32.263779 0.000000
							}
						}
						JOINT Hat
						{
							OFFSET 16.728800 15.048294 -15.439601
							CHANNELS 3 Xrotation Yrotation Zrotation
							End Site
							{
								OFFSET 0.000000 32.263779 0.000000
							}
						}
					}
				}
				JOINT LeftShoulder
				{
					OFFSET 6.197800 13.665199 -4.064700
					CHANNELS 3 Xrotation Yrotation Zrotation
					JOINT LeftArm
					{
						OFFSET 7.778100 -0.187103 -1.709300
						CHANNELS 3 Xrotation Yrotation Zrotation
						JOINT LeftForeArm
						{
							OFFSET 22.049376 0.000000 0.000000
							CHANNELS 3 Xrotation Yrotation Zrotation
							JOINT LeftHand
							{
								OFFSET 23.009392 0.000000 0.000000
								CHANNELS 3 Xrotation Yrotation Zrotation
								JOINT LeftHandThumb1
								{
									OFFSET 3.507191 -2.063065 3.133727
									CHANNELS 3 Xrotation Yrotation Zrotation
									JOINT LeftHandThumb2
									{
										OFFSET 3.101337 -1.790558 1.790558
										CHANNELS 3 Xrotation Yrotation Zrotation
										JOINT LeftHandThumb3
										{
											OFFSET 3.058640 -1.765907 1.765906
											CHANNELS 3 Xrotation Yrotation Zrotation
											End Site
											{
												OFFSET -0.415260 3.926476 -0.049563
											}
										}
									}
								}
								JOINT LeftHandIndex1
								{
									OFFSET 11.334419 -0.901459 3.706815
									CHANNELS 3 Xrotation Yrotation Zrotation
									JOINT LeftHandIndex2
									{
										OFFSET 3.283112 0.000000 0.000000
										CHANNELS 3 Xrotation Yrotation Zrotation
										JOINT LeftHandIndex3
										{
											OFFSET 3.323853 0.000000 0.000000
											CHANNELS 3 Xrotation Yrotation Zrotation
											End Site
											{
												OFFSET -1.135597 3.097809 0.402452
											}
										}
									}
								}
								JOINT LeftHandMiddle1
								{
									OFFSET 11.335861 0.000000 0.000000
									CHANNELS 3 Xrotation Yrotation Zrotation
									JOINT LeftHandMiddle2
									{
										OFFSET 3.410492 0.000000 0.000000
										CHANNELS 3 Xrotation Yrotation Zrotation
										JOINT LeftHandMiddle3
										{
											OFFSET 3.312172 0.000000 0.000000
											CHANNELS 3 Xrotation Yrotation Zrotation
											End Site
											{
												OFFSET -1.150200 3.080154 0.400270
											}
										}
									}
								}
								JOINT LeftHandRing1
								{
									OFFSET 11.514786 -0.013176 -3.003090
									CHANNELS 3 Xrotation Yrotation Zrotation
									JOINT LeftHandRing2
									{
										OFFSET 3.053307 0.000000 0.000000
										CHANNELS 3 Xrotation Yrotation Zrotation
										JOINT LeftHandRing3
										{
											OFFSET 3.295807 0.000000 0.000000
											CHANNELS 3 Xrotation Yrotation Zrotation
											End Site
											{
												OFFSET -1.281006 3.013344 0.375733
											}
										}
									}
								}
								JOINT LeftHandPinky1
								{
									OFFSET 10.518692 -0.960396 -5.730441
									CHANNELS 3 Xrotation Yrotation Zrotation
									JOINT LeftHandPinky2
									{
										OFFSET 2.861649 0.000000 0.000000
										CHANNELS 3 Xrotation Yrotation Zrotation
										JOINT LeftHandPinky3
										{
											OFFSET 2.863380 0.000000 0.000000
											CHANNELS 3 Xrotation Yrotation Zrotation
											End Site
											{
												OFFSET -0.843597 2.711159 0.369971
											}
										}
									}
								}
							}
							JOINT LSleeve
							{
								OFFSET 6.676277 -0.344902 -1.011730
								CHANNELS 3 Xrotation Yrotation Zrotation
								End Site
								{
									OFFSET 0.000000 14.885353 0.000000
								}
							}
						}
					}
				}
				JOINT RightShoulder
				{
					OFFSET -6.197800 13.665199 -4.064700
					CHANNELS 3 Xrotation Yrotation Zrotation
					JOINT RightArm
					{
						OFFSET -7.778100 -0.187103 -1.709300
						CHANNELS 3 Xrotation Yrotation Zrotation
						JOINT RightForeArm
						{
							OFFSET -22.049376 0.000000 0.000000
							CHANNELS 3 Xrotation Yrotation Zrotation
							JOINT RightHand
							{
								OFFSET -23.009392 0.000000 0.000000
								CHANNELS 3 Xrotation Yrotation Zrotation
								JOINT RightHandThumb1
								{
									OFFSET -3.507191 -2.063065 3.133727
									CHANNELS 3 Xrotation Yrotation Zrotation
									JOINT RightHandThumb2
									{
										OFFSET -3.101337 -1.790558 1.790558
										CHANNELS 3 Xrotation Yrotation Zrotation
										JOINT RightHandThumb3
										{
											OFFSET -3.058640 -1.765907 1.765906
											CHANNELS 3 Xrotation Yrotation Zrotation
											End Site
											{
												OFFSET 0.415260 3.926476 -0.049563
											}
										}
									}
								}
								JOINT RightHandIndex1
								{
									OFFSET -11.334419 -0.901459 3.706815
									CHANNELS 3 Xrotation Yrotation Zrotation
									JOINT RightHandIndex2
									{
										OFFSET -3.283112 0.000000 0.000000
										CHANNELS 3 Xrotation Yrotation Zrotation
										JOINT RightHandIndex3
										{
											OFFSET -3.323853 0.000000 0.000000
											CHANNELS 3 Xrotation Yrotation Zrotation
											End Site
											{
												OFFSET 1.135597 3.097809 0.402452
											}
										}
									}
								}
								JOINT RightHandMiddle1
								{
									OFFSET -11.335861 0.000000 0.000000
									CHANNELS 3 Xrotation Yrotation Zrotation
									JOINT RightHandMiddle2
									{
										OFFSET -3.410492 0.000000 0.000000
										CHANNELS 3 Xrotation Yrotation Zrotation
										JOINT RightHandMiddle3
										{
											OFFSET -3.312172 0.000000 0.000000
											CHANNELS 3 Xrotation Yrotation Zrotation
											End Site
											{
												OFFSET 1.150200 3.080154 0.400270
											}
										}
									}
								}
								JOINT RightHandRing1
								{
									OFFSET -11.514786 -0.013176 -3.003090
									CHANNELS 3 Xrotation Yrotation Zrotation
									JOINT RightHandRing2
									{
										OFFSET -3.053307 0.000000 0.000000
										CHANNELS 3 Xrotation Yrotation Zrotation
										JOINT RightHandRing3
										{
											OFFSET -3.295807 0.000000 0.000000
											CHANNELS 3 Xrotation Yrotation Zrotation
											End Site
											{
												OFFSET 1.281006 3.013344 0.375733
											}
										}
									}
								}
								JOINT RightHandPinky1
								{
									OFFSET -10.518692 -0.960396 -5.730441
									CHANNELS 3 Xrotation Yrotation Zrotation
									JOINT RightHandPinky2
									{
										OFFSET -2.861649 0.000000 0.000000
										CHANNELS 3 Xrotation Yrotation Zrotation
										JOINT RightHandPinky3
										{
											OFFSET -2.863380 0.000000 0.000000
											CHANNELS 3 Xrotation Yrotation Zrotation
											End Site
											{
												OFFSET 0.843597 2.711159 0.369971
											}
										}
									}
								}
							}
							JOINT RSleeve
							{
								OFFSET -6.676277 -0.344902 -1.011730
								CHANNELS 3 Xrotation Yrotation Zrotation
								End Site
								{
									OFFSET 0.000000 14.885353 0.000000
								}
							}
						}
					}
				}
				JOINT Backpack
				{
					OFFSET 0.000000 -2.471497 36.677502
					CHANNELS 3 Xrotation Yrotation Zrotation
					End Site
					{
						OFFSET 0.000000 20.427315 0.000000
					}
				}
				JOINT Hood
				{
					OFFSET 0.000000 18.754097 -10.431000
					CHANNELS 3 Xrotation Yrotation Zrotation
					JOINT Hood1
					{
						OFFSET 0.000000 -5.011002 -7.685901
						CHANNELS 3 Xrotation Yrotation Zrotation
						End Site
						{
							OFFSET 0.000000 9.175140 0.000000
						}
					}
				}
				JOINT LHoodieString
				{
					OFFSET 5.250500 16.397697 3.089900
					CHANNELS 3 Xrotation Yrotation Zrotation
					JOINT LHoodieString1
					{
						OFFSET 0.257700 -6.364304 3.694600
						CHANNELS 3 Xrotation Yrotation Zrotation
						JOINT LHoodieString2
						{
							OFFSET 0.000000 -9.643799 2.679100
							CHANNELS 3 Xrotation Yrotation Zrotation
							End Site
							{
								OFFSET 0.000000 10.009018 0.000000
							}
						}
					}
				}
				JOINT RHoodieString
				{
					OFFSET -5.250500 16.397697 3.089900
					CHANNELS 3 Xrotation Yrotation Zrotation
					JOINT RHoodieString1
					{
						OFFSET -0.257700 -6.364304 3.694600
						CHANNELS 3 Xrotation Yrotation Zrotation
						JOINT RHoodieString2
						{
							OFFSET 0.000000 -9.643799 2.679100
							CHANNELS 3 Xrotation Yrotation Zrotation
							End Site
							{
								OFFSET 0.000000 10.009018 0.000000
							}
						}
					}
				}
			}
			JOINT LBackpack_Strap
			{
				OFFSET 15.223200 -7.719803 -6.610900
				CHANNELS 3 Xrotation Yrotation Zrotation
				End Site
				{
					OFFSET 0.000000 16.040596 0.000000
				}
			}
			JOINT RBackpack_Strap
			{
				OFFSET -15.223000 -7.719803 -6.610900
				CHANNELS 3 Xrotation Yrotation Zrotation
				End Site
				{
					OFFSET 0.000000 16.040596 0.000000
				}
			}
		}
	}
	JOINT BoyFacialAnim_Joint
	{
		OFFSET 1.000000 -82.208099 -1.550900
		CHANNELS 3 Xrotation Yrotation Zrotation
		End Site
		{
			OFFSET 0.000000 30.012791 0.000000
		}
	}
}
MOTION
Frames: 4
Frame Time: 0.033333
-0.469003 82.382828 0.059865 -4.425637 -8.131794 -4.362217 -0.000000 -0.000000 -0.000000 -11.157237 14.770445 12.386527 13.468884 4.380641 4.151074 1.009707 0.503778 -8.285096 0.000000 0.000000 -0.000000 0.000000 0.000000 -0.000000 0.000000 0.000001 0.000000 1.311554 -10.001230 4.050043 6.677793 -8.974099 -2.936154 -3.116163 0.093396 2.829017 -0.000000 -0.000002 -0.000000 -0.000000 -0.000002 -0.000000 0.000000 -0.000001 0.000000 3.253377 1.386701 2.323329 1.049225 0.079862 1.339328 1.026181 0.095511 1.347417 6.137231 0.620498 -0.943593 -7.022955 5.233434 -2.908021 -0.000000 0.000000 0.000000 -0.000000 0.000000 0.000000 -0.000000 0.000000 0.000000 0.981505 -17.224146 -12.797834 5.555894 -20.382639 -67.135733 -0.000006 -3.075689 0.000004 -34.205188 -2.277315 -5.949721 -1.689724 0.257895 4.749673 11.362019 24.398392 17.364168 0.000000 -0.000000 -0.000001 0.029284 -0.831398 -8.403164 0.251727 1.700454 -16.839790 -0.000001 -0.000002 -0.000000 0.159030 3.631781 -19.401186 0.271680 1.765032 -17.499988 0.000001 0.000000 0.000006 -0.585691 2.127188 -23.927923 0.635504 2.655638 -26.911787 0.000000 0.000000 -0.000002 -0.964535 3.588893 -28.900890 0.245879 1.681039 -16.641797 0.000000 0.000001 -0.000002 -0.000004 0.000001 -0.000000 1.239211 14.256638 14.547801 14.134973 30.395414 59.028674 0.000003 7.924417 0.000003 -16.599052 0.248458 4.425874 -1.338191 -0.715984 -4.792781 11.955904 -28.424464 -16.281535 -0.000000 0.000002 0.000004 0.511049 0.333521 3.360775 0.197154 -1.342041 16.713437 -0.000004 0.000002 0.000002 0.259628 -3.704139 13.903630 0.230421 -1.448187 18.079611 0.000000 -0.000001 -0.000002 -0.705099 -1.604561 24.262393 0.585259 -2.262167 29.007229 -0.000000 -0.000001 0.000004 1.056678 -6.072502 29.098546 0.318962 -1.695500 21.307001 -0.000001 0.000001 0.000001 0.000001 -0.000001 0.000001 0.000000 0.000001 -0.000000 0.000000 0.000001 -0.000000 0.000000 0.000001 -0.000000 0.000000 0.000001 -0.000000 0.000000 0.000001 -0.000000 0.000000 0.000001 -0.000000 0.000000 0.000001 -0.000000 0.000000 0.000001 -0.000000 0.000000 0.000001 -0.000000 -0.000000 0.000000 -0.000000 -0.000000 0.000000 -0.000000 -0.000000 -0.000000 -0.000000 
-0.469933 82.390045 0.059642 -4.433601 -7.642507 -4.328459 -0.000000 0.000000 0.000000 -11.164197 14.773197 12.292783 13.309214 3.891977 4.213772 1.140791 0.504338 -8.285769 0.000000 -0.000000 -0.000000 0.000000 -0.000000 -0.000000 -0.000000 -0.000000 -0.000000 1.479119 -10.015578 4.098363 6.510816 -8.955804 -2.954923 -3.082619 -0.373926 2.833206 -0.000000 -0.000000 -0.000000 -0.000000 -0.000000 -0.000000 0.000000 -0.000002 -0.000000 3.245435 1.405369 2.312365 1.033391 0.114362 1.315118 1.010202 0.130338 1.324219 6.214919 1.269488 -0.508059 -6.579677 7.970254 -0.397102 -0.000000 -0.000000 -0.000000 -0.000000 -0.000000 -0.000000 -0.000000 -0.000000 -0.000000 0.987155 -17.127799 -12.750684 5.774749 -20.868658 -66.664716 0.000002 -3.275491 -0.000017 -34.198030 -2.288235 -5.999988 -1.734610 0.169988 4.770063 11.324117 24.317984 17.387454 -0.000001 -0.000001 -0.000001 0.038586 -0.815608 -8.494633 0.250886 1.697682 -16.811517 -0.000003 0.000001 -0.000002 0.159093 3.640304 -19.621855 0.271830 1.765489 -17.504696 0.000003 -0.000001 -0.000007 -0.607954 2.085241 -23.997738 0.652586 2.688987 -27.278129 0.000000 -0.000001 -0.000006 -1.031241 3.528944 -29.040465 0.249508 1.693121 -16.764908 -0.000001 0.000001 0.000002 -0.000000 0.000000 0.000000 1.242418 14.279955 14.526556 14.085731 30.619096 58.979298 0.000005 7.780261 -0.000005 -16.459231 0.026423 4.760301 -1.360858 -0.674503 -4.764141 11.959637 -28.429575 -16.279548 -0.000001 0.000003 0.000002 0.509667 0.345537 3.337030 0.198669 -1.347087 16.778081 -0.000002 0.000000 0.000002 0.244117 -3.641643 13.904815 0.229816 -1.446325 18.055620 0.000005 -0.000002 0.000001 -0.688986 -1.620179 24.092278 0.575766 -2.244975 28.765888 -0.000000 -0.000001 0.000004 1.047827 -6.023266 29.106209 0.317631 -1.692096 21.262140 -0.000001 0.000001 -0.000001 -0.000001 0.000001 -0.000001 0.000000 0.000000 -0.000000 0.000000 0.000000 -0.000000 0.000000 0.000000 -0.000000 0.000000 0.000000 -0.000000 0.000000 0.000000 -0.000000 0.000000 0.000000 -0.000000 0.000000 0.000000 -0.000000 0.000000 0.000000 -0.000000 0.000000 0.000000 -0.000000 0.000000 0.000000 0.000000 0.000000 0.000000 0.000000 -0.000000 0.000000 0.000000 
-0.464777 82.398262 0.055570 -4.429589 -7.168684 -4.288767 0.000001 0.000000 0.000001 -11.181135 14.774302 12.193025 13.157267 3.421215 4.259884 1.254580 0.506267 -8.274194 -0.000000 -0.000000 -0.000000 -0.000000 -0.000000 -0.000000 -0.000000 0.000001 -0.000001 1.605601 -10.026223 4.132530 6.377010 -8.939063 -2.979438 -3.044227 -0.830514 2.846920 0.000000 0.000002 -0.000000 0.000000 0.000002 -0.000000 -0.000000 -0.000001 -0.000000 3.238032 1.425181 2.308405 1.021230 0.150589 1.302191 0.997908 0.166825 1.312162 6.260549 1.696708 -0.147099 -6.420468 9.734751 1.502647 0.000000 -0.000000 0.000000 0.000000 -0.000000 0.000000 0.000000 -0.000000 0.000000 0.991795 -17.111610 -12.717527 6.027484 -21.301005 -66.131299 0.000004 -3.333759 0.000007 -34.036168 -2.130902 -6.138408 -1.818745 0.012823 4.769458 11.278772 24.221423 17.415249 -0.000002 -0.000001 0.000002 0.039421 -0.829250 -8.463586 0.249981 1.694659 -16.780716 -0.000002 0.000001 -0.000002 0.151414 3.623381 -19.740765 0.272070 1.766249 -17.512465 -0.000000 -0.000000 -0.000003 -0.641285 2.017782 -24.062073 0.669334 2.721190 -27.633088 0.000001 0.000001 -0.000005 -1.101048 3.458937 -29.109074 0.252358 1.702552 -16.861155 0.000000 0.000001 0.000003 -0.000003 0.000001 -0.000000 1.249908 14.368626 14.482561 13.941280 30.466779 58.899248 0.000010 7.509535 -0.000003 -17.228713 -0.283922 5.672900 -1.384935 -0.628224 -4.748370 11.963855 -28.418609 -16.275253 -0.000002 0.000002 0.000002 0.495805 0.418352 3.289086 0.199938 -1.351275 16.831688 -0.000000 0.000001 0.000000 0.229292 -3.583148 13.818168 0.229922 -1.446678 18.060122 0.000005 0.000000 0.000003 -0.668056 -1.641786 23.877004 0.563803 -2.223065 28.458994 -0.000002 -0.000002 -0.000000 1.031015 -5.954690 29.026699 0.318287 -1.693748 21.283850 -0.000000 -0.000001 0.000004 0.000002 0.000000 -0.000001 0.000000 -0.000001 0.000000 0.000000 -0.000001 0.000000 0.000000 -0.000001 0.000000 0.000000 -0.000001 0.000000 0.000000 -0.000001 0.000000 0.000000 -0.000000 0.000000 0.000000 -0.000001 0.000000 0.000000 -0.000001 0.000000 0.000000 -0.000000 0.000000 -0.000000 0.000000 0.000000 -0.000000 0.000000 0.000000 0.000001 0.000000 0.000001 
-0.455034 82.406425 0.047124 -4.412303 -6.718464 -4.228016 0.000001 0.000000 0.000000 -11.205391 14.775192 12.069772 13.009086 2.985564 4.294785 1.364317 0.506855 -8.233842 -0.000000 0.000001 0.000000 -0.000000 0.000001 0.000000 0.000000 -0.000000 -0.000000 1.712449 -10.032501 4.149736 6.235010 -8.923142 -3.014455 -3.003794 -1.268225 2.842270 0.000000 0.000000 0.000000 0.000000 0.000000 0.000000 -0.000000 -0.000003 0.000000 3.234258 1.445440 2.306859 1.016217 0.187694 1.297754 0.993382 0.203297 1.305775 6.281765 1.862390 0.086268 -6.447246 10.350993 2.573588 0.000000 0.000000 0.000000 0.000000 0.000000 0.000000 0.000000 0.000000 0.000000 0.993796 -17.119784 -12.697325 6.257036 -21.591558 -65.619219 -0.000006 -3.263694 0.000006 -33.921670 -1.941163 -6.296184 -1.851965 -0.050752 4.782278 11.259716 24.180903 17.426801 0.000002 -0.000001 -0.000000 0.032954 -0.808578 -8.536960 0.248952 1.691291 -16.746377 -0.000003 -0.000000 -0.000004 0.155240 3.641955 -19.944608 0.272241 1.766797 -17.518030 0.000000 -0.000000 -0.000001 -0.658358 1.985257 -24.109448 0.683214 2.747508 -27.923978 -0.000000 -0.000000 -0.000000 -1.133273 3.438485 -29.272104 0.254739 1.710376 -16.941060 -0.000001 0.000001 0.000003 -0.000001 -0.000000 0.000001 1.256687 14.483356 14.442162 13.767726 30.060134 58.789009 -0.000000 7.236805 0.000010 -18.347968 -0.506818 6.549223 -1.412168 -0.581020 -4.700021 11.963302 -28.439255 -16.276978 -0.000001 -0.000001 -0.000001 0.485293 0.457154 3.308254 0.198207 -1.345564 16.758518 -0.000003 0.000000 0.000002 0.216663 -3.531488 13.863582 0.229374 -1.445006 18.038569 0.000001 0.000000 0.000001 -0.644130 -1.671122 23.663127 0.546417 -2.190701 28.007382 -0.000001 -0.000000 0.000000 1.017362 -5.894341 28.975049 0.315953 -1.687771 21.205091 -0.000003 0.000002 0.000001 -0.000002 0.000000 -0.000000 0.000000 -0.000001 0.000000 0.000000 -0.000001 0.000000 0.000000 -0.000001 0.000000 0.000000 -0.000001 0.000000 0.000000 -0.000001 0.000000 0.000000 -0.000001 0.000000 0.000000 -0.000001 0.000000 0.000000 -0.000001 0.000000 0.000000 -0.000001 0.000000 -0.000000 -0.000000 0.000000 -0.000000 -0.000000 0.000000 0.000001 0.000000 0.000000 
